{
  "asset": {
    "version": "2.0",
    "generator": "THREE.GLTFExporter"
  },
  "scenes": [
    {
      "name": "Scene",
      "nodes": [
        15
      ]
    }
  ],
  "scene": 0,
  "nodes": [
    {
      "name": "Cube_1",
      "mesh": 0
    },
    {
      "name": "Cube_2",
      "mesh": 1
    },
    {
      "name": "Cube_3",
      "mesh": 2
    },
    {
      "name": "Cube_4",
      "mesh": 3
    },
    {
      "matrix": [
        1,
        0,
        0,
        0,
        0,
        1,
        0,
        0,
        0,
        0,
        1,
        0,
        0,
        2.7400999069213867,
        0,
        1
      ],
      "name": "Cube",
      "extras": {
        "name": "Cube"
      },
      "children": [
        0,
        1,
        2,
        3
      ]
    },
    {
      "name": "Cylinder_1",
      "mesh": 4
    },
    {
      "name": "Cylinder_2",
      "mesh": 5
    },
    {
      "matrix": [
        0.5310718417167664,
        0,
        0,
        0,
        0,
        0.04274750648949117,
        -0.5293485892574424,
        0,
        0,
        0.5293485892574424,
        0.04274750648949117,
        0,
        0,
        5.207551002502441,
        -0.6968894004821777,
        1
      ],
      "name": "Cylinder",
      "extras": {
        "name": "Cylinder"
      },
      "children": [
        5,
        6
      ]
    },
    {
      "matrix": [
        -0.00020540129101398463,
        -0.866025511673933,
        0.49999995346299997,
        0,
        -1.0000000068471655,
        -2.1920785009399424e-7,
        -0.00041084178002037675,
        0,
        0.00035586341288151857,
        -0.4999999956152017,
        -0.866025529801675,
        0,
        0,
        1.399999976158142,
        0.8654710054397583,
        1
      ],
      "name": "BezierCircle",
      "extras": {
        "name": "BezierCircle"
      },
      "mesh": 6
    },
    {
      "matrix": [
        1.1925220944064563e-7,
        -0.8660253991492186,
        -0.49999993236692397,
        0,
        0.999999962169245,
        1.1925220944064563e-7,
        2.1816811468511332e-8,
        0,
        2.1816811468511332e-8,
        -0.49999993236692397,
        0.8660254369799736,
        0,
        0,
        1.399999976158142,
        -0.8654710054397583,
        1
      ],
      "name": "BezierCircle001",
      "extras": {
        "name": "BezierCircle.001"
      },
      "mesh": 7
    },
    {
      "matrix": [
        -0.49999996317433926,
        -0.8660254148326345,
        -5.646608514098261e-9,
        0,
        -7.86470906177783e-8,
        5.782359835393436e-8,
        -0.9999999941034545,
        0,
        0.866025414832631,
        -0.4999999690708776,
        -8.817736585342573e-8,
        0,
        -0.8654710054397583,
        1.399999976158142,
        0,
        1
      ],
      "name": "BezierCircle002",
      "extras": {
        "name": "BezierCircle.002"
      },
      "mesh": 8
    },
    {
      "matrix": [
        0.4999999749674213,
        -0.8660254148326345,
        -5.646608514098261e-9,
        0,
        -7.86470906177783e-8,
        -4.6030516287487444e-8,
        0.9999999941034545,
        0,
        -0.866025414832631,
        -0.4999999690708776,
        -8.817736585342573e-8,
        0,
        0.8654710054397583,
        1.399999976158142,
        0,
        1
      ],
      "name": "BezierCircle003",
      "extras": {
        "name": "BezierCircle.003"
      },
      "mesh": 9
    },
    {
      "name": "Cylinder003",
      "mesh": 10
    },
    {
      "name": "Cylinder003_1",
      "mesh": 11
    },
    {
      "matrix": [
        0.5310718417167664,
        0,
        0,
        0,
        0,
        0.042591327237491254,
        0.529361233121037,
        0,
        0,
        -0.529361233121037,
        0.042591327237491254,
        0,
        0,
        5.207551002502441,
        0.6968889832496643,
        1
      ],
      "name": "Cylinder002",
      "extras": {
        "name": "Cylinder.002"
      },
      "children": [
        12,
        13
      ]
    },
    {
      "name": "uploads_files_4081881_rocket_2.glb",
      "children": [
        4,
        7,
        8,
        9,
        10,
        11,
        14
      ]
    }
  ],
  "bufferViews": [
    {
      "buffer": 0,
      "byteOffset": 0,
      "byteLength": 40332,
      "target": 34962,
      "byteStride": 12
    },
    {
      "buffer": 0,
      "byteOffset": 40332,
      "byteLength": 40332,
      "target": 34962,
      "byteStride": 12
    },
    {
      "buffer": 0,
      "byteOffset": 80664,
      "byteLength": 39936,
      "target": 34963
    },
    {
      "buffer": 0,
      "byteOffset": 120600,
      "byteLength": 9612,
      "target": 34962,
      "byteStride": 12
    },
    {
      "buffer": 0,
      "byteOffset": 130212,
      "byteLength": 9612,
      "target": 34962,
      "byteStride": 12
    },
    {
      "buffer": 0,
      "byteOffset": 139824,
      "byteLength": 9216,
      "target": 34963
    },
    {
      "buffer": 0,
      "byteOffset": 149040,
      "byteLength": 13824,
      "target": 34962,
      "byteStride": 12
    },
    {
      "buffer": 0,
      "byteOffset": 162864,
      "byteLength": 13824,
      "target": 34962,
      "byteStride": 12
    },
    {
      "buffer": 0,
      "byteOffset": 176688,
      "byteLength": 12288,
      "target": 34963
    },
    {
      "buffer": 0,
      "byteOffset": 188976,
      "byteLength": 32256,
      "target": 34962,
      "byteStride": 12
    },
    {
      "buffer": 0,
      "byteOffset": 221232,
      "byteLength": 32256,
      "target": 34962,
      "byteStride": 12
    },
    {
      "buffer": 0,
      "byteOffset": 253488,
      "byteLength": 30720,
      "target": 34963
    },
    {
      "buffer": 0,
      "byteOffset": 284208,
      "byteLength": 768,
      "target": 34962,
      "byteStride": 12
    },
    {
      "buffer": 0,
      "byteOffset": 284976,
      "byteLength": 768,
      "target": 34962,
      "byteStride": 12
    },
    {
      "buffer": 0,
      "byteOffset": 285744,
      "byteLength": 360,
      "target": 34963
    },
    {
      "buffer": 0,
      "byteOffset": 286104,
      "byteLength": 3072,
      "target": 34962,
      "byteStride": 12
    },
    {
      "buffer": 0,
      "byteOffset": 289176,
      "byteLength": 3072,
      "target": 34962,
      "byteStride": 12
    },
    {
      "buffer": 0,
      "byteOffset": 292248,
      "byteLength": 2688,
      "target": 34963
    },
    {
      "buffer": 0,
      "byteOffset": 294936,
      "byteLength": 25560,
      "target": 34962,
      "byteStride": 12
    },
    {
      "buffer": 0,
      "byteOffset": 320496,
      "byteLength": 25560,
      "target": 34962,
      "byteStride": 12
    },
    {
      "buffer": 0,
      "byteOffset": 346056,
      "byteLength": 18408,
      "target": 34963
    },
    {
      "buffer": 0,
      "byteOffset": 364464,
      "byteLength": 25560,
      "target": 34962,
      "byteStride": 12
    },
    {
      "buffer": 0,
      "byteOffset": 390024,
      "byteLength": 25560,
      "target": 34962,
      "byteStride": 12
    },
    {
      "buffer": 0,
      "byteOffset": 415584,
      "byteLength": 25560,
      "target": 34962,
      "byteStride": 12
    },
    {
      "buffer": 0,
      "byteOffset": 441144,
      "byteLength": 25560,
      "target": 34962,
      "byteStride": 12
    },
    {
      "buffer": 0,
      "byteOffset": 466704,
      "byteLength": 25560,
      "target": 34962,
      "byteStride": 12
    },
    {
      "buffer": 0,
      "byteOffset": 492264,
      "byteLength": 25560,
      "target": 34962,
      "byteStride": 12
    },
    {
      "buffer": 0,
      "byteOffset": 517824,
      "byteLength": 3072,
      "target": 34962,
      "byteStride": 12
    },
    {
      "buffer": 0,
      "byteOffset": 520896,
      "byteLength": 3072,
      "target": 34962,
      "byteStride": 12
    },
    {
      "buffer": 0,
      "byteOffset": 523968,
      "byteLength": 2868,
      "target": 34963
    },
    {
      "buffer": 0,
      "byteOffset": 526836,
      "byteLength": 384,
      "target": 34962,
      "byteStride": 12
    },
    {
      "buffer": 0,
      "byteOffset": 527220,
      "byteLength": 384,
      "target": 34962,
      "byteStride": 12
    },
    {
      "buffer": 0,
      "byteOffset": 527604,
      "byteLength": 180,
      "target": 34963
    }
  ],
  "buffers": [
    {
      "byteLength": 527784,
      "uri": "data:application/octet-stream;base64,"
    }
  ],
  "accessors": [
    {
      "bufferView": 0,
      "componentType": 5126,
      "count": 3361,
      "max": [
        0.8330479860305786,
        -1.0249050855636597,
        0.8330479860305786
      ],
      "min": [
        -0.8330479860305786,
        -1.4071259498596191,
        -0.8330479860305786
      ],
      "type": "VEC3"
    },
    {
      "bufferView": 1,
      "componentType": 5126,
      "count": 3361,
      "max": [
        1,
        0.9999843835830688,
        1
      ],
      "min": [
        -1,
        -1,
        -1
      ],
      "type": "VEC3"
    },
    {
      "bufferView": 2,
      "componentType": 5123,
      "count": 19968,
      "max": [
        3360
      ],
      "min": [
        0
      ],
      "type": "SCALAR"
    },
    {
      "bufferView": 3,
      "componentType": 5126,
      "count": 801,
      "max": [
        0.9073734283447266,
        4.786747932434082,
        0.9073734283447266
      ],
      "min": [
        -0.9073734283447266,
        3.4434361457824707,
        -0.9073733687400818
      ],
      "type": "VEC3"
    },
    {
      "bufferView": 4,
      "componentType": 5126,
      "count": 801,
      "max": [
        0.9706822633743286,
        1,
        0.9706822633743286
      ],
      "min": [
        -0.9706822633743286,
        -0.3938221037387848,
        -0.9706822037696838
      ],
      "type": "VEC3"
    },
    {
      "bufferView": 5,
      "componentType": 5123,
      "count": 4608,
      "max": [
        800
      ],
      "min": [
        0
      ],
      "type": "SCALAR"
    },
    {
      "bufferView": 6,
      "componentType": 5126,
      "count": 1152,
      "max": [
        1.0074585676193237,
        3.444263219833374,
        1.0074584484100342
      ],
      "min": [
        -1.0074585676193237,
        -0.04019058868288994,
        -1.0074585676193237
      ],
      "type": "VEC3"
    },
    {
      "bufferView": 7,
      "componentType": 5126,
      "count": 1152,
      "max": [
        0.9999557733535767,
        0.9976451992988586,
        0.9999557733535767
      ],
      "min": [
        -0.9999557137489319,
        -0.9915287494659424,
        -0.9999557137489319
      ],
      "type": "VEC3"
    },
    {
      "bufferView": 8,
      "componentType": 5123,
      "count": 6144,
      "max": [
        1151
      ],
      "min": [
        0
      ],
      "type": "SCALAR"
    },
    {
      "bufferView": 9,
      "componentType": 5126,
      "count": 2688,
      "max": [
        1.0912020206451416,
        3.39101243019104,
        1.0912020206451416
      ],
      "min": [
        -1.0912020206451416,
        -1.0249308347702026,
        -1.0912020206451416
      ],
      "type": "VEC3"
    },
    {
      "bufferView": 10,
      "componentType": 5126,
      "count": 2688,
      "max": [
        0.9999738931655884,
        0.6121149063110352,
        0.9999737739562988
      ],
      "min": [
        -0.9999738931655884,
        -0.9689807295799255,
        -0.9999738931655884
      ],
      "type": "VEC3"
    },
    {
      "bufferView": 11,
      "componentType": 5123,
      "count": 15360,
      "max": [
        2687
      ],
      "min": [
        0
      ],
      "type": "SCALAR"
    },
    {
      "bufferView": 12,
      "componentType": 5126,
      "count": 64,
      "max": [
        1,
        0.740710437297821,
        1
      ],
      "min": [
        -1,
        -1,
        -1
      ],
      "type": "VEC3"
    },
    {
      "bufferView": 13,
      "componentType": 5126,
      "count": 64,
      "max": [
        0.7278876900672913,
        0.685696542263031,
        0.7278876900672913
      ],
      "min": [
        -0.727887749671936,
        -0.6856964826583862,
        -0.7278876900672913
      ],
      "type": "VEC3"
    },
    {
      "bufferView": 14,
      "componentType": 5123,
      "count": 180,
      "max": [
        63
      ],
      "min": [
        0
      ],
      "type": "SCALAR"
    },
    {
      "bufferView": 15,
      "componentType": 5126,
      "count": 256,
      "max": [
        1,
        1,
        1
      ],
      "min": [
        -1,
        -1,
        -1
      ],
      "type": "VEC3"
    },
    {
      "bufferView": 16,
      "componentType": 5126,
      "count": 256,
      "max": [
        0.9810764789581299,
        0.9832021594047546,
        0.9810764193534851
      ],
      "min": [
        -0.9810764789581299,
        -0.6856964826583862,
        -0.9810764193534851
      ],
      "type": "VEC3"
    },
    {
      "bufferView": 17,
      "componentType": 5123,
      "count": 1344,
      "max": [
        255
      ],
      "min": [
        0
      ],
      "type": "SCALAR"
    },
    {
      "bufferView": 18,
      "componentType": 5126,
      "count": 2130,
      "max": [
        1.2854235172271729,
        0.10999999940395355,
        0.17432808876037598
      ],
      "min": [
        -1.1101977825164795,
        -0.10999999940395355,
        -1.0530794858932495
      ],
      "type": "VEC3"
    },
    {
      "bufferView": 19,
      "componentType": 5126,
      "count": 2130,
      "max": [
        0.9958525896072388,
        1,
        0.996901273727417
      ],
      "min": [
        -0.9964580535888672,
        -1,
        -0.9968650341033936
      ],
      "type": "VEC3"
    },
    {
      "bufferView": 20,
      "componentType": 5123,
      "count": 9204,
      "max": [
        2129
      ],
      "min": [
        0
      ],
      "type": "SCALAR"
    },
    {
      "bufferView": 21,
      "componentType": 5126,
      "count": 2130,
      "max": [
        1.2854235172271729,
        0.10999999940395355,
        0.17432808876037598
      ],
      "min": [
        -1.1101977825164795,
        -0.10999999940395355,
        -1.0530794858932495
      ],
      "type": "VEC3"
    },
    {
      "bufferView": 22,
      "componentType": 5126,
      "count": 2130,
      "max": [
        0.9958525896072388,
        1,
        0.996901273727417
      ],
      "min": [
        -0.9964580535888672,
        -1,
        -0.9968650341033936
      ],
      "type": "VEC3"
    },
    {
      "bufferView": 23,
      "componentType": 5126,
      "count": 2130,
      "max": [
        1.2854235172271729,
        0.10999999940395355,
        0.17432808876037598
      ],
      "min": [
        -1.1101977825164795,
        -0.10999999940395355,
        -1.0530794858932495
      ],
      "type": "VEC3"
    },
    {
      "bufferView": 24,
      "componentType": 5126,
      "count": 2130,
      "max": [
        0.9958525896072388,
        1,
        0.996901273727417
      ],
      "min": [
        -0.9964580535888672,
        -1,
        -0.9968650341033936
      ],
      "type": "VEC3"
    },
    {
      "bufferView": 25,
      "componentType": 5126,
      "count": 2130,
      "max": [
        1.2854235172271729,
        0.10999999940395355,
        0.17432808876037598
      ],
      "min": [
        -1.1101977825164795,
        -0.10999999940395355,
        -1.0530794858932495
      ],
      "type": "VEC3"
    },
    {
      "bufferView": 26,
      "componentType": 5126,
      "count": 2130,
      "max": [
        0.9958525896072388,
        1,
        0.996901273727417
      ],
      "min": [
        -0.9964580535888672,
        -1,
        -0.9968650341033936
      ],
      "type": "VEC3"
    },
    {
      "bufferView": 27,
      "componentType": 5126,
      "count": 256,
      "max": [
        1,
        1,
        1
      ],
      "min": [
        -1,
        -1,
        -1
      ],
      "type": "VEC3"
    },
    {
      "bufferView": 28,
      "componentType": 5126,
      "count": 256,
      "max": [
        0.9810764789581299,
        0.9832021594047546,
        0.9810764193534851
      ],
      "min": [
        -0.9810764789581299,
        -0.6856964826583862,
        -0.9810764193534851
      ],
      "type": "VEC3"
    },
    {
      "bufferView": 29,
      "componentType": 5123,
      "count": 1434,
      "max": [
        255
      ],
      "min": [
        0
      ],
      "type": "SCALAR"
    },
    {
      "bufferView": 30,
      "componentType": 5126,
      "count": 32,
      "max": [
        0.7195625901222229,
        0.740710437297821,
        0.7195625901222229
      ],
      "min": [
        -0.7195625901222229,
        0.740710437297821,
        -0.7195625901222229
      ],
      "type": "VEC3"
    },
    {
      "bufferView": 31,
      "componentType": 5126,
      "count": 32,
      "max": [
        0.7278876900672913,
        0.685696542263031,
        0.7278876900672913
      ],
      "min": [
        -0.727887749671936,
        0.6856963038444519,
        -0.7278876900672913
      ],
      "type": "VEC3"
    },
    {
      "bufferView": 32,
      "componentType": 5123,
      "count": 90,
      "max": [
        31
      ],
      "min": [
        0
      ],
      "type": "SCALAR"
    }
  ],
  "materials": [
    {
      "pbrMetallicRoughness": {
        "baseColorFactor": [
          0.1192735806107521,
          0.1192735806107521,
          0.1192735806107521,
          1
        ],
        "metallicFactor": 0,
        "roughnessFactor": 0.5
      },
      "doubleSided": true,
      "name": "RingMaterial"
    },
    {
      "pbrMetallicRoughness": {
        "baseColorFactor": [
          0.8000000715255737,
          0.046633657068014145,
          0.03452366217970848,
          1
        ],
        "metallicFactor": 0,
        "roughnessFactor": 0.5
      },
      "doubleSided": true,
      "name": "TipMaterial"
    },
    {
      "pbrMetallicRoughness": {
        "baseColorFactor": [
          0,
          0,
          0,
          1
        ],
        "metallicFactor": 0,
        "roughnessFactor": 0.5
      },
      "doubleSided": true,
      "name": "blackMaterial"
    },
    {
      "pbrMetallicRoughness": {
        "baseColorFactor": [
          0.800000011920929,
          0.800000011920929,
          0.800000011920929,
          1
        ],
        "metallicFactor": 0,
        "roughnessFactor": 0.5
      },
      "doubleSided": true,
      "name": "Material"
    },
    {
      "pbrMetallicRoughness": {
        "baseColorFactor": [
          0.138475239276886,
          0.8344552516937256,
          1,
          1
        ],
        "metallicFactor": 0,
        "roughnessFactor": 0.5
      },
      "doubleSided": true,
      "name": "GlassMaterial"
    }
  ],
  "meshes": [
    {
      "primitives": [
        {
          "mode": 4,
          "attributes": {
            "POSITION": 0,
            "NORMAL": 1
          },
          "indices": 2,
          "material": 0
        }
      ]
    },
    {
      "primitives": [
        {
          "mode": 4,
          "attributes": {
            "POSITION": 3,
            "NORMAL": 4
          },
          "indices": 5,
          "material": 1
        }
      ]
    },
    {
      "primitives": [
        {
          "mode": 4,
          "attributes": {
            "POSITION": 6,
            "NORMAL": 7
          },
          "indices": 8,
          "material": 2
        }
      ]
    },
    {
      "primitives": [
        {
          "mode": 4,
          "attributes": {
            "POSITION": 9,
            "NORMAL": 10
          },
          "indices": 11,
          "material": 3
        }
      ]
    },
    {
      "primitives": [
        {
          "mode": 4,
          "attributes": {
            "POSITION": 12,
            "NORMAL": 13
          },
          "indices": 14,
          "material": 4
        }
      ]
    },
    {
      "primitives": [
        {
          "mode": 4,
          "attributes": {
            "POSITION": 15,
            "NORMAL": 16
          },
          "indices": 17,
          "material": 0
        }
      ]
    },
    {
      "primitives": [
        {
          "mode": 4,
          "attributes": {
            "POSITION": 18,
            "NORMAL": 19
          },
          "indices": 20,
          "material": 1
        }
      ]
    },
    {
      "primitives": [
        {
          "mode": 4,
          "attributes": {
            "POSITION": 21,
            "NORMAL": 22
          },
          "indices": 20,
          "material": 1
        }
      ]
    },
    {
      "primitives": [
        {
          "mode": 4,
          "attributes": {
            "POSITION": 23,
            "NORMAL": 24
          },
          "indices": 20,
          "material": 1
        }
      ]
    },
    {
      "primitives": [
        {
          "mode": 4,
          "attributes": {
            "POSITION": 25,
            "NORMAL": 26
          },
          "indices": 20,
          "material": 1
        }
      ]
    },
    {
      "primitives": [
        {
          "mode": 4,
          "attributes": {
            "POSITION": 27,
            "NORMAL": 28
          },
          "indices": 29,
          "material": 0
        }
      ]
    },
    {
      "primitives": [
        {
          "mode": 4,
          "attributes": {
            "POSITION": 30,
            "NORMAL": 31
          },
          "indices": 32,
          "material": 4
        }
      ]
    }
  ]
}