<?xml version="1.0" standalone="no"?>
<!DOCTYPE svg PUBLIC "-//W3C//DTD SVG 20010904//EN"
 "http://www.w3.org/TR/2001/REC-SVG-20010904/DTD/svg10.dtd">
<svg version="1.0" xmlns="http://www.w3.org/2000/svg"
 width="512.000000pt" height="512.000000pt" viewBox="0 0 512.000000 512.000000"
 preserveAspectRatio="xMidYMid meet">

<g transform="translate(0.000000,512.000000) scale(0.100000,-0.100000)"
fill="#2D79C7" stroke="none">
<path d="M430 5109 c-130 -19 -248 -88 -325 -191 -53 -71 -83 -147 -96 -247
-6 -49 -9 -813 -7 -2166 l3 -2090 22 -65 c54 -159 170 -273 328 -323 l70 -22
2140 0 2140 0 66 23 c160 55 272 169 322 327 l22 70 0 2135 0 2135 -22 70
c-49 157 -155 265 -319 327 l-59 23 -2115 1 c-1163 1 -2140 -2 -2170 -7z
m3931 -2383 c48 -9 120 -26 160 -39 l74 -23 3 -237 c1 -130 0 -237 -2 -237 -3
0 -26 14 -53 30 -61 38 -197 84 -310 106 -110 20 -293 15 -368 -12 -111 -39
-175 -110 -175 -193 0 -110 97 -197 335 -300 140 -61 309 -146 375 -189 30
-20 87 -68 126 -107 119 -117 164 -234 164 -426 0 -310 -145 -518 -430 -613
-131 -43 -248 -59 -445 -60 -243 -1 -405 24 -577 90 l-68 26 0 242 c0 175 -3
245 -12 254 -9 9 -9 12 0 12 7 0 12 -4 12 -9 0 -17 139 -102 223 -138 136 -57
233 -77 382 -76 145 0 224 19 295 68 75 52 100 156 59 242 -41 84 -135 148
-374 253 -367 161 -522 300 -581 520 -23 86 -23 253 -1 337 73 275 312 448
682 492 109 13 401 6 506 -13z m-1391 -241 l0 -205 -320 0 -320 0 0 -915 0
-915 -255 0 -255 0 0 915 0 915 -320 0 -320 0 0 205 0 205 895 0 895 0 0 -205z"/>
</g>
</svg>
