<?xml version="1.0"?>
<svg xmlns:rdf="http://www.w3.org/1999/02/22-rdf-syntax-ns#" xmlns="http://www.w3.org/2000/svg" xmlns:cc="http://web.resource.org/cc/" xmlns:dc="http://purl.org/dc/elements/1.1/" xmlns:svg="http://www.w3.org/2000/svg" id="svg18586" viewBox="0 0 212.6 212.6" version="1.0">
  <g id="layer1" transform="translate(17.728 7.9865)">
    <g id="g18842">
      <path id="path18671" d="m162.86 76.884a104.29 104.29 0 1 1 -208.57 0 104.29 104.29 0 1 1 208.57 0z" fill="#fff" transform="matrix(1.0193 0 0 1.0193 28.869 19.944)"/>
      <g id="g18437" fill-rule="evenodd" transform="matrix(.18633 0 0 .18633 -1808.2 -1562.8)">
        <symbol id="symbol18439">
          <path id="path18422" class="fil0" fill="#fff" d="m13816 8478.1c299 0 543 244 543 543.1s-244 543.1-543 543.1c-300 0-544-244-544-543.1s244-543.1 544-543.1z"/>
          <path id="path18424" class="fil1" fill="#f00" d="m13816 8450.7c314 0 570 256.3 570 570.5s-256 570.5-570 570.5c-315 0-571-256.3-571-570.5s256-570.5 571-570.5zm-14 577.4c18 0 35 6 48 16.1-12-10.1-27-17.1-44-19.9-50-8.3-98 26.2-107 76.7v4.8c-48-18.7-79-69.3-70-122.2l30-183.5 208 22.4c4 0.4 8-4.3 8-10.6 1-6.2-2-11.7-6-12.2l-206-22.2 2-13.8 208 22.4c4 0.4 8-4.3 9-10.6 0-6.2-3-11.7-7-12.2l-206-22.2 3-19.8 207 22.3c4 0.5 8-4.3 9-10.5 0-6.3-3-11.8-7-12.2l-205-22.2 3-18.8 208 22.5c4 0.4 8-4.3 9-10.6s-2-11.8-6-12.2l-208-22.4 4-20.9c25-153.6 343-111.9 316 51.9l-57 347.3c-6 36.8-30 66.5-61 81.9 0-11.7-2-23-6-33.5 3 7.7 4 15.9 4 24.4 0 37.3-25 68.8-60 77.7v284c0 17.4-12 31.7-26 31.7h-35c-15 0-26-14.3-26-31.7v-317.9c-8-12.6-13-27.6-13-43.8 0-44.2 36-80.2 80-80.2z"/>
        </symbol>
        <g id="g18443">
          <path id="path18429" class="fil1" fill="#f00" d="m10180 8344.5c314 0 570 256.3 570 570.5s-256 570.5-570 570.5c-314.4 0-570.7-256.3-570.7-570.5s256.3-570.5 570.7-570.5zm-254.7 360.4h124.7v-163.8c0-21.8 13-39.7 30-39.7 16 0 30 17.9 30 39.7v163.8h146v-163.8c0-21.8 13-39.7 30-39.7 16 0 30 17.9 30 39.7v163.8h118c17 0 31 18.9 31 41.9 0 23.1-14 41.9-31 41.9h-36v170.7c0 46.1-38 83.8-84 83.8h-103c0 1.6-6 0.7-6 2.4 38 30.8 2 107.4 29 133.2 23 22.1 61 41.7 77 58.9 91 98.3 51 115.1-36 58.8-31-20.2-46-48.1-98-87.3-38-29.1 19-121.7-31-161.1-1-1-9-3.3-9-4.9h-92c-45.7 0-83.4-37.7-83.4-83.8v-170.7h-36.3c-17.1 0-31-18.8-31-41.9 0-23 13.9-41.9 31-41.9z"/>
        </g>
      </g>
    </g>
  </g>
  <metadata>
    <rdf:RDF>
      <cc:Work>
        <dc:format>image/svg+xml</dc:format>
        <dc:type rdf:resource="http://purl.org/dc/dcmitype/StillImage"/>
        <cc:license rdf:resource="http://creativecommons.org/licenses/publicdomain/"/>
        <dc:publisher>
          <cc:Agent rdf:about="http://openclipart.org/">
            <dc:title>Openclipart</dc:title>
          </cc:Agent>
        </dc:publisher>
        <dc:title>icon bus bar</dc:title>
        <dc:date>2007-04-18T02:48:48</dc:date>
        <dc:description>simple red circular icon with white simplified power cord</dc:description>
        <dc:source>http://openclipart.org/detail/3987/icon-bus-bar-by-jportugall</dc:source>
        <dc:creator>
          <cc:Agent>
            <dc:title>JPortugall</dc:title>
          </cc:Agent>
        </dc:creator>
        <dc:subject>
          <rdf:Bag>
            <rdf:li>clip art</rdf:li>
            <rdf:li>clipart</rdf:li>
            <rdf:li>event</rdf:li>
            <rdf:li>icon</rdf:li>
            <rdf:li>image</rdf:li>
            <rdf:li>media</rdf:li>
            <rdf:li>microphone</rdf:li>
            <rdf:li>organization</rdf:li>
            <rdf:li>public domain</rdf:li>
            <rdf:li>svg</rdf:li>
          </rdf:Bag>
        </dc:subject>
      </cc:Work>
      <cc:License rdf:about="http://creativecommons.org/licenses/publicdomain/">
        <cc:permits rdf:resource="http://creativecommons.org/ns#Reproduction"/>
        <cc:permits rdf:resource="http://creativecommons.org/ns#Distribution"/>
        <cc:permits rdf:resource="http://creativecommons.org/ns#DerivativeWorks"/>
      </cc:License>
    </rdf:RDF>
  </metadata>
</svg>
