<?xml version="1.0" encoding="UTF-8"?>
<!DOCTYPE svg PUBLIC "-//W3C//DTD SVG 1.1//EN" "http://www.w3.org/Graphics/SVG/1.1/DTD/svg11.dtd">
<svg xmlns="http://www.w3.org/2000/svg" version="1.1" width="3508px" height="1175px" style="shape-rendering:geometricPrecision; text-rendering:geometricPrecision; image-rendering:optimizeQuality; fill-rule:evenodd; clip-rule:evenodd" xmlns:xlink="http://www.w3.org/1999/xlink">
<g><path style="opacity:0.99" fill="#8d1a7e" d="M 813.5,142.5 C 825.854,143.001 838.187,143.834 850.5,145C 874.522,149.628 882.022,163.128 873,185.5C 849.086,216.083 820.253,240.917 786.5,260C 769.505,268.774 752.172,276.774 734.5,284C 725.793,287.051 719.293,292.551 715,300.5C 706.263,342.738 680.43,365.738 637.5,369.5C 629.046,369.305 621.379,366.805 614.5,362C 612.718,359.757 612.218,357.257 613,354.5C 619.083,340.079 627.916,327.579 639.5,317C 637.833,316.667 636.167,316.333 634.5,316C 622.542,284.128 611.376,251.961 601,219.5C 599.269,217.383 597.102,215.883 594.5,215C 585.862,213.264 577.195,213.097 568.5,214.5C 561.169,215.041 555.002,212.708 550,207.5C 547.528,201.409 548.195,195.742 552,190.5C 574.672,164.946 602.839,154.446 636.5,159C 647.39,162.777 657.39,168.11 666.5,175C 672.843,176.935 679.177,176.935 685.5,175C 718.313,160.951 752.313,150.951 787.5,145C 796.321,144.183 804.988,143.35 813.5,142.5 Z M 769.5,181.5 C 788.395,180.068 798.728,188.734 800.5,207.5C 799.311,227.193 788.978,235.693 769.5,233C 759.22,231.387 752.72,225.553 750,215.5C 746.431,198.297 752.931,186.963 769.5,181.5 Z"/></g>
<g><path style="opacity:0.98" fill="#8d1a7e" d="M 530.5,254.5 C 550.735,252.075 567.402,258.575 580.5,274C 557.369,282.826 534.703,292.826 512.5,304C 449.93,340.601 408.097,393.767 387,463.5C 376.351,498.727 370.018,534.727 368,571.5C 366.455,584.161 361.455,595.161 353,604.5C 350.54,603.402 348.04,602.402 345.5,601.5C 333.432,516.11 350.598,437.11 397,364.5C 413.271,338.186 432.771,314.353 455.5,293C 477.244,273.795 502.244,260.961 530.5,254.5 Z"/></g>
<g><path style="opacity:0.991" fill="#6e1b5e" d="M 1463.5,273.5 C 1610.83,273.5 1758.17,273.5 1905.5,273.5C 1898.4,319.754 1889.9,365.754 1880,411.5C 1878.27,413.617 1876.1,415.117 1873.5,416C 1864.18,418.941 1854.84,421.774 1845.5,424.5C 1843.99,396.971 1844.33,369.471 1846.5,342C 1847.42,329.591 1841.75,322.591 1829.5,321C 1768.17,319.648 1706.84,319.315 1645.5,320C 1639.91,322.586 1636.08,326.753 1634,332.5C 1622.39,397.828 1610.89,463.162 1599.5,528.5C 1600.37,530.747 1600.71,533.08 1600.5,535.5C 1646.83,535.667 1693.17,535.5 1739.5,535C 1743.92,532.912 1747.42,529.745 1750,525.5C 1756.39,509.655 1762.39,493.655 1768,477.5C 1770.92,470.371 1776.25,467.038 1784,467.5C 1791.22,468.175 1798.39,469.175 1805.5,470.5C 1796.63,527.728 1786.46,584.728 1775,641.5C 1773.9,644.937 1771.73,647.437 1768.5,649C 1764.17,649.667 1759.83,649.667 1755.5,649C 1750.19,647.97 1744.85,647.137 1739.5,646.5C 1739.67,627.497 1739.5,608.497 1739,589.5C 1737.9,586.063 1735.73,583.563 1732.5,582C 1714.05,580.859 1695.55,580.359 1677,580.5C 1659.83,580.667 1642.67,580.833 1625.5,581C 1616.43,581.085 1607.43,581.752 1598.5,583C 1592.8,585.365 1589.3,589.531 1588,595.5C 1576.85,655.108 1566.01,714.775 1555.5,774.5C 1555.71,775.994 1556.38,777.161 1557.5,778C 1584.83,782 1612.17,786 1639.5,790C 1645.61,809.622 1638.45,819.456 1618,819.5C 1535.18,818.679 1452.34,818.179 1369.5,818C 1368.69,817.692 1368.03,817.192 1367.5,816.5C 1365.84,809.002 1366.34,801.669 1369,794.5C 1372.67,789.75 1377.5,787.25 1383.5,787C 1418.97,789.191 1439.14,772.691 1444,737.5C 1466.7,599.794 1490.53,462.294 1515.5,325C 1515.87,318.733 1513.2,314.399 1507.5,312C 1490.01,309.535 1472.68,306.368 1455.5,302.5C 1454.67,301.5 1453.83,300.5 1453,299.5C 1451.9,292.615 1452.57,285.949 1455,279.5C 1457.32,276.605 1460.16,274.605 1463.5,273.5 Z"/></g>
<g><path style="opacity:0.943" fill="#8d1a7e" d="M 581.5,320.5 C 583.199,320.34 584.866,320.506 586.5,321C 541.787,353.377 504.287,392.544 474,438.5C 465.655,452.522 457.821,466.855 450.5,481.5C 453.551,453.861 462.717,428.194 478,404.5C 498.854,370.644 527.021,344.81 562.5,327C 568.893,324.662 575.226,322.495 581.5,320.5 Z"/></g>
<g><path style="opacity:0.99" fill="#8d1a7e" d="M 773.5,405.5 C 786.379,405.523 796.879,410.523 805,420.5C 817.391,436.617 826.057,454.617 831,474.5C 835.954,493.225 839.287,512.225 841,531.5C 846.404,543.815 853.904,554.648 863.5,564C 865.167,564.833 866.833,565.667 868.5,566.5C 874.216,564.809 879.549,562.309 884.5,559C 894.833,549.333 905.167,539.667 915.5,530C 919.698,527.839 923.698,528.172 927.5,531C 933.981,540.083 939.148,549.916 943,560.5C 946.27,565.224 950.103,569.391 954.5,573C 1012.6,598.096 1061.1,635.596 1100,685.5C 1100.98,686.759 1101.32,688.092 1101,689.5C 1064.05,671.276 1026.22,655.109 987.5,641C 981.568,639.35 975.568,638.017 969.5,637C 954.12,636.562 938.787,636.896 923.5,638C 894.186,629.561 865.019,620.728 836,611.5C 830.233,621.389 831.399,630.222 839.5,638C 842.774,639.202 846.107,640.202 849.5,641C 908.675,648.171 965.008,664.837 1018.5,691C 945.861,692.162 875.528,705.495 807.5,731C 790.074,735.847 772.741,735.514 755.5,730C 725.727,716.615 695.394,704.615 664.5,694C 572.741,666.395 479.241,658.228 384,669.5C 380.058,668.872 376.225,667.872 372.5,666.5C 393.641,651.164 416.974,640.331 442.5,634C 464.972,628.921 487.639,624.921 510.5,622C 544.467,617.707 578.467,613.707 612.5,610C 622.192,607.732 630.025,602.565 636,594.5C 640.086,587.993 644.42,581.66 649,575.5C 649.628,572.419 648.461,570.419 645.5,569.5C 633.821,571.068 622.155,572.235 610.5,573C 608.337,565.532 606.17,558.032 604,550.5C 599.03,545.717 593.53,545.217 587.5,549C 580.291,552.207 576.125,557.707 575,565.5C 574.668,570.19 575.002,574.857 576,579.5C 577.328,584.478 578.495,589.478 579.5,594.5C 546.432,593.121 513.432,590.954 480.5,588C 503,562.833 525.5,537.667 548,512.5C 556.554,503.946 565.054,495.446 573.5,487C 585.46,481.733 596.46,483.399 606.5,492C 630.695,514.593 659.362,527.76 692.5,531.5C 702.087,501.907 713.92,473.24 728,445.5C 736.207,432.24 746.374,420.74 758.5,411C 763.299,408.238 768.299,406.404 773.5,405.5 Z M 723.5,569.5 C 726.061,569.447 728.061,570.447 729.5,572.5C 724,586.833 718.5,601.167 713,615.5C 710.342,622.591 705.175,626.424 697.5,627C 686.257,627.82 675.09,627.653 664,626.5C 663.5,625.5 663,624.5 662.5,623.5C 663.982,621.517 665.649,619.684 667.5,618C 686.425,602.052 705.092,585.885 723.5,569.5 Z"/></g>
<g><path style="opacity:0.992" fill="#6e1b5e" d="M 2314.5,426.5 C 2315.59,426.62 2316.25,427.287 2316.5,428.5C 2296.72,541.873 2276.72,655.206 2256.5,768.5C 2256.64,779.944 2262.3,786.778 2273.5,789C 2278.57,789.678 2283.57,790.678 2288.5,792C 2294.31,794.11 2297.31,798.276 2297.5,804.5C 2296.95,808.686 2295.79,812.686 2294,816.5C 2248.57,817.497 2203.07,817.83 2157.5,817.5C 2155.8,801.161 2153.97,784.828 2152,768.5C 2137,783.506 2120.84,797.006 2103.5,809C 2069.68,829.091 2034.01,833.091 1996.5,821C 1967.3,808.135 1948.47,786.301 1940,755.5C 1917.39,660.284 1937.39,575.284 2000,500.5C 2050.47,445.778 2112.97,421.945 2187.5,429C 2211.42,432.318 2235.26,436.152 2259,440.5C 2271.29,439.624 2282.79,436.124 2293.5,430C 2300.64,428.862 2307.64,427.695 2314.5,426.5 Z M 2150.5,467.5 C 2164.16,467.999 2177.16,471.165 2189.5,477C 2194.95,480.738 2197.62,485.904 2197.5,492.5C 2184.88,564.213 2172.05,635.88 2159,707.5C 2146.22,733.279 2127.05,752.779 2101.5,766C 2078.04,773.355 2061.21,765.855 2051,743.5C 2043.5,719.5 2037.33,695.167 2032.5,670.5C 2036.07,626.87 2046.24,584.87 2063,544.5C 2072.25,523.153 2085.08,504.32 2101.5,488C 2115.67,475.783 2132,468.95 2150.5,467.5 Z"/></g>
<g><path style="opacity:0.993" fill="#6e1b5e" d="M 2974.5,427.5 C 3007.1,427.032 3030.27,441.365 3044,470.5C 3047.84,481.676 3051.17,493.009 3054,504.5C 3070.28,484.552 3088.78,467.052 3109.5,452C 3138.65,433.796 3170.32,426.129 3204.5,429C 3244.91,438.088 3265.58,463.422 3266.5,505C 3265.84,519.209 3264.67,533.376 3263,547.5C 3251.57,621.762 3238.73,695.762 3224.5,769.5C 3223.68,775.55 3225.68,780.383 3230.5,784C 3239.35,786.567 3248.35,788.567 3257.5,790C 3260.61,790.644 3263.44,791.811 3266,793.5C 3269.77,810.561 3262.94,819.228 3245.5,819.5C 3199.86,818.51 3154.19,818.177 3108.5,818.5C 3121.34,743.791 3134.51,669.125 3148,594.5C 3151.66,574.066 3154.82,553.566 3157.5,533C 3156.38,520.957 3153.21,509.457 3148,498.5C 3141.95,487.389 3132.78,483.222 3120.5,486C 3104.08,493.738 3089.91,504.571 3078,518.5C 3057.47,542.557 3044.14,570.223 3038,601.5C 3026.98,668.282 3015.31,734.949 3003,801.5C 3002.27,806.741 3000.77,811.741 2998.5,816.5C 2963.51,817.5 2928.51,817.833 2893.5,817.5C 2909.99,722.902 2926.15,628.235 2942,533.5C 2943.46,520.91 2941.46,508.91 2936,497.5C 2928.74,486.856 2918.9,483.356 2906.5,487C 2865.75,507.103 2839.58,539.27 2828,583.5C 2824.82,595.386 2822.16,607.386 2820,619.5C 2808.82,685.574 2797.32,751.574 2785.5,817.5C 2749.83,817.833 2714.16,817.5 2678.5,816.5C 2696.85,706.393 2715.85,596.393 2735.5,486.5C 2736.21,477.041 2731.88,471.541 2722.5,470C 2704.58,469.571 2699.08,461.071 2706,444.5C 2710.79,440.26 2716.46,438.26 2723,438.5C 2761.81,439.485 2800.65,439.819 2839.5,439.5C 2839.17,459.511 2839.5,479.511 2840.5,499.5C 2841.83,500.167 2843.17,500.833 2844.5,501.5C 2855.32,489.842 2865.99,478.008 2876.5,466C 2904.31,440.894 2936.98,428.061 2974.5,427.5 Z"/></g>
<g><path style="opacity:0.993" fill="#6e1b5e" d="M 2632.5,428.5 C 2643.6,428.731 2654.6,429.897 2665.5,432C 2659.6,474.219 2652.44,516.385 2644,558.5C 2641.7,561.984 2638.53,563.984 2634.5,564.5C 2625.1,564.056 2618.94,559.39 2616,550.5C 2613.21,541.521 2610.54,532.521 2608,523.5C 2604.03,516.931 2598.2,513.597 2590.5,513.5C 2561.84,518.91 2538.34,532.91 2520,555.5C 2510.9,568.118 2504.9,582.118 2502,597.5C 2489.14,666.012 2477.14,734.679 2466,803.5C 2465.12,810.803 2461.28,815.636 2454.5,818C 2421.17,818.667 2387.83,818.667 2354.5,818C 2375.39,703.673 2395.39,589.34 2414.5,475C 2403.75,473.05 2393.08,470.716 2382.5,468C 2367.18,459.865 2366.51,450.531 2380.5,440C 2427.83,439.5 2475.17,439.333 2522.5,439.5C 2520.66,461.865 2518.83,484.199 2517,506.5C 2532.43,486.406 2549.93,468.239 2569.5,452C 2588.27,437.936 2609.27,430.103 2632.5,428.5 Z"/></g>
<g><path style="opacity:0.993" fill="#8d1a7e" d="M 425.5,702.5 C 503.643,698.147 580.31,706.647 655.5,728C 678.383,734.953 700.383,743.786 721.5,754.5C 686.333,774.914 651.666,796.08 617.5,818C 584.666,842.826 552.999,869.159 522.5,897C 520.606,898.404 518.606,899.57 516.5,900.5C 472.078,875.247 436.245,840.914 409,797.5C 391.486,769.146 377.819,739.146 368,707.5C 387.232,705.425 406.399,703.759 425.5,702.5 Z"/></g>
<g><path style="opacity:0.991" fill="#8d1a7e" d="M 1026.5,733.5 C 1053.17,733.436 1079.84,733.769 1106.5,734.5C 1106.62,741.872 1105.12,748.872 1102,755.5C 1099.74,758.433 1096.9,760.6 1093.5,762C 966.59,774.981 856.257,823.981 762.5,909C 743.439,927.393 725.106,946.393 707.5,966C 702.431,970.135 696.597,972.302 690,972.5C 652.072,963.976 614.572,953.809 577.5,942C 569.392,937.049 561.725,931.549 554.5,925.5C 656.85,825.16 779.516,764.327 922.5,743C 957.162,738.067 991.828,734.9 1026.5,733.5 Z"/></g>
<g><path style="opacity:0.988" fill="#8d1a7e" d="M 1068.5,798.5 C 1070.29,798.215 1071.95,798.548 1073.5,799.5C 1013.37,897.448 926.038,954.614 811.5,971C 792.903,974.1 774.236,975.6 755.5,975.5C 837.638,877.913 941.972,818.913 1068.5,798.5 Z"/></g>
</svg>
