<?xml version="1.0" encoding="UTF-8"?>
<!DOCTYPE svg PUBLIC "-//W3C//DTD SVG 1.1//EN" "http://www.w3.org/Graphics/SVG/1.1/DTD/svg11.dtd">
<svg version="1.2" width="200mm" height="200mm" viewBox="9500 4500 10000 10000" preserveAspectRatio="xMidYMid" fill-rule="evenodd" stroke-width="28.222" stroke-linejoin="round" xmlns="http://www.w3.org/2000/svg" xmlns:ooo="http://xml.openoffice.org/svg/export" xmlns:xlink="http://www.w3.org/1999/xlink" xmlns:presentation="http://sun.com/xmlns/staroffice/presentation" xmlns:smil="http://www.w3.org/2001/SMIL20/" xmlns:anim="urn:oasis:names:tc:opendocument:xmlns:animation:1.0" xml:space="preserve">
 <defs class="ClipPathGroup">
  <clipPath id="presentation_clip_path" clipPathUnits="userSpaceOnUse">
   <rect x="0" y="0" width="29700" height="21000"/>
  </clipPath>
  <clipPath id="presentation_clip_path_shrink" clipPathUnits="userSpaceOnUse">
   <rect x="29" y="21" width="29641" height="20958"/>
  </clipPath>
 </defs>
 <defs class="TextShapeIndex">
  <g ooo:slide="id1" ooo:id-list="id3 id4 id5 id6 id7 id8 id9"/>
 </defs>
 <defs class="EmbeddedBulletChars">
  <g id="bullet-char-template-57356" transform="scale(0.00048828125,-0.00048828125)">
   <path d="M 580,1141 L 1163,571 580,0 -4,571 580,1141 Z"/>
  </g>
  <g id="bullet-char-template-57354" transform="scale(0.00048828125,-0.00048828125)">
   <path d="M 8,1128 L 1137,1128 1137,0 8,0 8,1128 Z"/>
  </g>
  <g id="bullet-char-template-10146" transform="scale(0.00048828125,-0.00048828125)">
   <path d="M 174,0 L 602,739 174,1481 1456,739 174,0 Z M 1358,739 L 309,1346 659,739 1358,739 Z"/>
  </g>
  <g id="bullet-char-template-10132" transform="scale(0.00048828125,-0.00048828125)">
   <path d="M 2015,739 L 1276,0 717,0 1260,543 174,543 174,936 1260,936 717,1481 1274,1481 2015,739 Z"/>
  </g>
  <g id="bullet-char-template-10007" transform="scale(0.00048828125,-0.00048828125)">
   <path d="M 0,-2 C -7,14 -16,27 -25,37 L 356,567 C 262,823 215,952 215,954 215,979 228,992 255,992 264,992 276,990 289,987 310,991 331,999 354,1012 L 381,999 492,748 772,1049 836,1024 860,1049 C 881,1039 901,1025 922,1006 886,937 835,863 770,784 769,783 710,716 594,584 L 774,223 C 774,196 753,168 711,139 L 727,119 C 717,90 699,76 672,76 641,76 570,178 457,381 L 164,-76 C 142,-110 111,-127 72,-127 30,-127 9,-110 8,-76 1,-67 -2,-52 -2,-32 -2,-23 -1,-13 0,-2 Z"/>
  </g>
  <g id="bullet-char-template-10004" transform="scale(0.00048828125,-0.00048828125)">
   <path d="M 285,-33 C 182,-33 111,30 74,156 52,228 41,333 41,471 41,549 55,616 82,672 116,743 169,778 240,778 293,778 328,747 346,684 L 369,508 C 377,444 397,411 428,410 L 1163,1116 C 1174,1127 1196,1133 1229,1133 1271,1133 1292,1118 1292,1087 L 1292,965 C 1292,929 1282,901 1262,881 L 442,47 C 390,-6 338,-33 285,-33 Z"/>
  </g>
  <g id="bullet-char-template-9679" transform="scale(0.00048828125,-0.00048828125)">
   <path d="M 813,0 C 632,0 489,54 383,161 276,268 223,411 223,592 223,773 276,916 383,1023 489,1130 632,1184 813,1184 992,1184 1136,1130 1245,1023 1353,916 1407,772 1407,592 1407,412 1353,268 1245,161 1136,54 992,0 813,0 Z"/>
  </g>
  <g id="bullet-char-template-8226" transform="scale(0.00048828125,-0.00048828125)">
   <path d="M 346,457 C 273,457 209,483 155,535 101,586 74,649 74,723 74,796 101,859 155,911 209,963 273,989 346,989 419,989 480,963 531,910 582,859 608,796 608,723 608,648 583,586 532,535 482,483 420,457 346,457 Z"/>
  </g>
  <g id="bullet-char-template-8211" transform="scale(0.00048828125,-0.00048828125)">
   <path d="M -4,459 L 1135,459 1135,606 -4,606 -4,459 Z"/>
  </g>
  <g id="bullet-char-template-61548" transform="scale(0.00048828125,-0.00048828125)">
   <path d="M 173,740 C 173,903 231,1043 346,1159 462,1274 601,1332 765,1332 928,1332 1067,1274 1183,1159 1299,1043 1357,903 1357,740 1357,577 1299,437 1183,322 1067,206 928,148 765,148 601,148 462,206 346,322 231,437 173,577 173,740 Z"/>
  </g>
 </defs>
 <g>
  <g id="id2" class="Master_Slide">
   <g id="bg-id2" class="Background"/>
   <g id="bo-id2" class="BackgroundObjects"/>
  </g>
 </g>
 <g class="SlideGroup">
  <g>
   <g id="container-id1">
    <g id="id1" class="Slide" clip-path="url(#presentation_clip_path)">
     <g class="Page">
      <g class="com.sun.star.drawing.ClosedBezierShape">
       <g id="id3">
        <rect class="BoundingBox" stroke="none" fill="none" x="11296" y="7210" width="1958" height="2835"/>
        <path fill="rgb(143,26,127)" stroke="none" d="M 13252,7395 C 13252,7395 11540,7646 11513,9925 L 11342,10043 C 11342,10043 11027,8871 12040,7698 12040,7698 12804,6844 13252,7395 Z"/>
       </g>
      </g>
      <g class="com.sun.star.drawing.ClosedBezierShape">
       <g id="id4">
        <rect class="BoundingBox" stroke="none" fill="none" x="12093" y="7685" width="1279" height="1634"/>
        <path fill="rgb(143,26,127)" stroke="none" d="M 13371,7685 C 13371,7685 12264,7869 12093,9318 12093,9318 12250,8435 13371,7685 Z"/>
       </g>
      </g>
      <g class="com.sun.star.drawing.ClosedBezierShape">
       <g id="id5">
        <rect class="BoundingBox" stroke="none" fill="none" x="11473" y="8423" width="5966" height="2697"/>
        <path fill="rgb(143,26,127)" stroke="none" d="M 11473,10570 C 11473,10570 13235,10242 14778,11118 14778,11118 16013,10630 16879,10759 16879,10759 16053,10351 15246,10292 L 15236,10092 C 15236,10092 15661,10151 15842,10272 15842,10272 15978,10347 16302,10264 16302,10264 16949,10445 17438,10761 17438,10761 16972,10023 16136,9744 16136,9744 16016,9240 15842,9428 15842,9428 15631,9813 15465,9706 15465,9706 15300,9616 15300,9345 15300,9345 15157,8172 14622,8472 14622,8472 14276,8713 14126,9435 14126,9435 13674,9383 13433,9119 13433,9119 13200,8954 13094,9127 13094,9127 12582,9790 12296,9910 12296,9910 13019,9903 13260,9978 13260,9978 13094,9820 13230,9586 13230,9586 13411,9488 13426,9646 13426,9646 13350,9865 13576,9766 13576,9766 13825,9684 13749,9820 L 13546,10053 C 13546,10053 11942,10099 11473,10570 Z M 11473,10570 L 11473,10570 Z M 13840,10196 L 14238,10196 14434,9687 13840,10196 Z"/>
       </g>
      </g>
      <g class="com.sun.star.drawing.ClosedBezierShape">
       <g id="id6">
        <rect class="BoundingBox" stroke="none" fill="none" x="11503" y="10789" width="2902" height="1623"/>
        <path fill="rgb(143,26,127)" stroke="none" d="M 11503,10834 C 11503,10834 11779,11899 12724,12411 12724,12411 13569,11519 14404,11242 14404,11242 13429,10623 11503,10834 Z"/>
       </g>
      </g>
      <g class="com.sun.star.drawing.ClosedBezierShape">
       <g id="id7">
        <rect class="BoundingBox" stroke="none" fill="none" x="13000" y="11042" width="4442" height="1933"/>
        <path fill="rgb(143,26,127)" stroke="none" d="M 13000,12584 C 13000,12584 13346,12947 14194,12973 14194,12973 15277,11439 17389,11283 L 17441,11067 C 17441,11067 14800,10722 13000,12584 Z"/>
       </g>
      </g>
      <g class="com.sun.star.drawing.ClosedBezierShape">
       <g id="id8">
        <rect class="BoundingBox" stroke="none" fill="none" x="14602" y="11561" width="2564" height="1439"/>
        <path fill="rgb(143,26,127)" stroke="none" d="M 14602,12999 C 14602,12999 15493,11768 17165,11561 17165,11561 16524,12973 14602,12999 Z"/>
       </g>
      </g>
      <g class="com.sun.star.drawing.ClosedBezierShape">
       <g id="id9">
        <rect class="BoundingBox" stroke="none" fill="none" x="12929" y="6316" width="2671" height="1839"/>
        <path fill="rgb(143,26,127)" stroke="none" d="M 13957,6622 C 13725,6487 13698,6367 13341,6468 13184,6513 12718,6779 13040,6889 13113,6914 13083,6897 13151,6897 13295,6897 13246,6871 13394,6932 13418,7039 13371,6982 13409,7136 L 13566,7533 C 13582,7564 13594,7583 13615,7608 13619,7613 13626,7620 13631,7625 13635,7630 13643,7636 13647,7641 L 13699,7690 C 13652,7808 13219,8096 13607,8151 13737,8170 13931,8092 14033,8025 14227,7897 14285,7789 14305,7511 14606,7449 15567,6947 15598,6554 15623,6241 14958,6314 14779,6350 14422,6422 14255,6506 13957,6622 Z M 13957,6622 L 13957,6622 Z M 14735,6646 C 14647,6670 14535,6705 14563,6878 14578,6971 14669,7073 14822,7049 15061,7013 15004,6572 14735,6646 Z"/>
       </g>
      </g>
     </g>
    </g>
   </g>
  </g>
 </g>
</svg>
